<svg width="21" height="19" viewBox="0 0 21 19" fill="none" xmlns="http://www.w3.org/2000/svg">
<path d="M10.4992 19C12.264 19.0018 14.0005 18.5996 15.5473 17.8308L18.5761 18.6072C18.8521 18.6796 19.1445 18.6837 19.4229 18.619C19.7012 18.5543 19.9552 18.4232 20.1584 18.2393C20.3616 18.0555 20.5066 17.8256 20.5781 17.5738C20.6496 17.322 20.6451 17.0574 20.5651 16.8077L19.7069 14.0673C20.8134 12.2415 21.2261 10.1373 20.8818 8.07847C20.5374 6.01965 19.4549 4.12022 17.8009 2.67237C16.1468 1.22452 14.0128 0.308464 11.7271 0.0651124C9.44143 -0.17824 7.13068 0.264595 5.15033 1.3255C3.16998 2.3864 1.62974 4.00659 0.766535 5.93685C-0.0966702 7.86711 -0.23502 10.0005 0.37277 12.0088C0.98056 14.0172 2.30082 15.7892 4.13045 17.0524C5.96009 18.3155 8.19774 18.9998 10.4992 19ZM15.4463 16.3144C15.3013 16.3165 15.1591 16.351 15.0324 16.4149C13.1707 17.4138 10.97 17.7636 8.84356 17.3984C6.71708 17.0333 4.81107 15.9783 3.48341 14.4317C2.15574 12.8851 1.49776 10.9532 1.63299 8.9987C1.76823 7.04423 2.68739 5.20163 4.21788 3.81691C5.74837 2.43218 7.78492 1.60056 9.94513 1.4782C12.1053 1.35585 14.2406 1.95117 15.95 3.15239C17.6595 4.3536 18.8254 6.07809 19.229 8.00205C19.6326 9.926 19.2461 11.9171 18.142 13.6014C18.0869 13.6877 18.0514 13.783 18.0375 13.8818C18.0237 13.9806 18.0317 14.081 18.0612 14.1769L19.0203 17.2096L15.6684 16.3418C15.5961 16.3237 15.5214 16.3145 15.4463 16.3144Z" fill="black"/>
</svg>
