<svg width="29" height="29" viewBox="0 0 29 29" fill="none" xmlns="http://www.w3.org/2000/svg">
<path d="M14.5 14.5C12.5063 14.5 10.7995 13.7901 9.37969 12.3703C7.9599 10.9505 7.25 9.24375 7.25 7.25C7.25 5.25625 7.9599 3.54948 9.37969 2.12969C10.7995 0.709896 12.5063 0 14.5 0C16.4937 0 18.2005 0.709896 19.6203 2.12969C21.0401 3.54948 21.75 5.25625 21.75 7.25C21.75 9.24375 21.0401 10.9505 19.6203 12.3703C18.2005 13.7901 16.4937 14.5 14.5 14.5ZM3.625 29C2.62812 29 1.77504 28.6454 1.06575 27.9361C0.35525 27.2256 0 26.3719 0 25.375V23.925C0 22.8979 0.264625 21.9536 0.793875 21.0921C1.32192 20.2317 2.02396 19.575 2.9 19.1219C4.77292 18.1854 6.67604 17.4828 8.60938 17.0139C10.5427 16.5463 12.5063 16.3125 14.5 16.3125C16.4937 16.3125 18.4573 16.5463 20.3906 17.0139C22.324 17.4828 24.2271 18.1854 26.1 19.1219C26.976 19.575 27.6781 20.2317 28.2061 21.0921C28.7354 21.9536 29 22.8979 29 23.925V25.375C29 26.3719 28.6454 27.2256 27.9361 27.9361C27.2256 28.6454 26.3719 29 25.375 29H3.625Z" fill="#BABABA"/>
</svg>
