<svg width="48" height="48" viewBox="0 0 48 48" fill="none" xmlns="http://www.w3.org/2000/svg">
<path d="M11.212 1H36.765C44.953 1 47 3.047 47 11.212V25.771C47 33.959 44.953 35.983 36.788 35.983H11.212C3.047 36.006 1 33.959 1 25.794V11.212C1 3.047 3.047 1 11.212 1Z" stroke="white" stroke-width="2" stroke-linecap="round" stroke-linejoin="round"/>
<path d="M24 36.0061V47.0001" stroke="white" stroke-width="2" stroke-linecap="round" stroke-linejoin="round"/>
<path d="M1 26.3H47" stroke="white" stroke-width="2" stroke-linecap="round" stroke-linejoin="round"/>
<path d="M13.6499 47H34.3499" stroke="white" stroke-width="2" stroke-linecap="round" stroke-linejoin="round"/>
<path d="M22.2827 18.5372C22.1639 18.5372 22.0531 18.5056 21.9502 18.4345C21.7839 18.3238 21.6889 18.142 21.6889 17.9443C21.6889 17.8257 21.681 17.6992 21.6652 17.5728C21.594 17.0115 21.3406 16.5213 20.9132 16.0944C20.4857 15.6675 19.9553 15.3987 19.3853 15.3276C19.2903 15.3197 19.1558 15.3118 19.0291 15.3197C18.8233 15.3355 18.6333 15.2485 18.5146 15.0825C18.3958 14.9244 18.3641 14.711 18.4275 14.5212C18.5462 14.1971 18.7204 13.9046 18.9262 13.6674L20.1453 12.1338C22.2431 9.51707 26.4941 6.37068 29.6051 5.12161C30.2701 4.86863 30.9667 5.01884 31.4496 5.49317C31.9483 5.99121 32.0988 6.70271 31.8375 7.35096C30.5868 10.4657 27.444 14.7031 24.8238 16.798L23.2643 18.0471C22.9714 18.2605 22.7339 18.3949 22.4964 18.4898C22.4331 18.5214 22.3539 18.5372 22.2827 18.5372ZM19.9949 14.2445C20.6598 14.4185 21.2536 14.7663 21.7523 15.2644C22.251 15.7545 22.5835 16.3237 22.7497 16.9561L24.0876 15.881C26.5732 13.8967 29.5577 9.87282 30.7372 6.91616C30.8559 6.62365 30.6897 6.41811 30.6105 6.34696C30.5551 6.29162 30.3493 6.1177 30.0326 6.23628C27.0878 7.42211 23.0584 10.4025 21.0636 12.8848L19.9949 14.2445Z" fill="white"/>
<path d="M17.2553 22C16.6615 22 16.0916 21.7629 15.6641 21.336C15.1733 20.8458 14.9358 20.166 15.015 19.4703L15.2287 17.5255C15.4345 15.5966 17.0178 14.1657 18.981 14.1261C19.1314 14.1182 19.3293 14.1261 19.5114 14.142C20.3742 14.2526 21.1421 14.64 21.7596 15.2566C22.3691 15.8654 22.7333 16.5927 22.8441 17.4069C22.8679 17.5809 22.8837 17.7706 22.8837 17.9366C22.8837 18.9801 22.48 19.9525 21.7517 20.6877C21.1421 21.2885 20.3584 21.6601 19.4718 21.7708L17.5165 21.9842C17.4294 21.9921 17.3423 22 17.2553 22ZM19.1314 15.3199C19.0997 15.3199 19.0602 15.3199 19.0285 15.3199C17.8331 15.3436 16.5665 16.1579 16.4082 17.6599L16.1945 19.6047C16.1549 19.9367 16.2736 20.2608 16.5032 20.498C16.7328 20.7272 17.0574 20.8458 17.3819 20.8063L19.3293 20.5929C19.9389 20.5138 20.4851 20.2608 20.8967 19.8497C21.4033 19.3438 21.6883 18.6639 21.6883 17.9366C21.6883 17.818 21.6804 17.6915 21.6646 17.565C21.5933 17.0038 21.34 16.5136 20.9125 16.0867C20.4851 15.6598 19.9547 15.391 19.3847 15.3199C19.3214 15.3199 19.2264 15.3199 19.1314 15.3199Z" fill="white"/>
<path d="M25.2981 16.0472C24.9735 16.0472 24.7044 15.7784 24.7044 15.4543C24.7044 13.7151 23.2873 12.3079 21.5537 12.3079C21.2291 12.3079 20.96 12.0391 20.96 11.715C20.96 11.3909 21.2212 11.1221 21.5458 11.1221C23.9365 11.1221 25.8839 13.0668 25.8839 15.4543C25.8918 15.7863 25.6226 16.0472 25.2981 16.0472Z" fill="white"/>
<path d="M26.439 21.9842C25.7028 21.9842 24.9666 21.6364 24.262 20.9328C24.0325 20.7035 24.0325 20.3241 24.262 20.0948C24.4916 19.8656 24.8716 19.8656 25.1011 20.0948C26.0353 21.0277 26.8348 21.0277 27.7689 20.0948L30.1121 17.7548C31.0541 16.814 31.0541 16.0156 30.1121 15.0827L29.5263 14.5056C29.2967 14.2764 29.2888 13.8969 29.5184 13.6676C29.748 13.4305 30.1279 13.4305 30.3575 13.6597L30.9433 14.2368C32.3524 15.644 32.3524 17.1856 30.9433 18.5928L28.6001 20.9328C27.9114 21.6285 27.1752 21.9842 26.439 21.9842Z" fill="white"/>
<path d="M16.4882 12.9165C16.3378 12.9165 16.1795 12.8612 16.0686 12.7426C14.6754 11.3433 14.6754 9.79382 16.0686 8.39454L18.4118 6.05452C19.8051 4.66314 21.3725 4.66314 22.7658 6.05452L23.3516 6.63952C23.5811 6.86878 23.5811 7.24825 23.3516 7.47751C23.122 7.70676 22.742 7.70676 22.5124 7.47751L21.9187 6.8925C20.9846 5.95965 20.1771 5.95965 19.2509 6.8925L16.9077 9.23253C15.9736 10.1733 15.9736 10.9717 16.9077 11.9125C17.1373 12.1418 17.1373 12.5212 16.9077 12.7505C16.789 12.8612 16.6386 12.9165 16.4882 12.9165Z" fill="white"/>
<path d="M20.0029 10.5764C19.8525 10.5764 19.7021 10.5211 19.5833 10.4025C19.3537 10.1732 19.3537 9.79377 19.5833 9.56451L22.5123 6.63947C22.7419 6.41021 23.1218 6.41021 23.3514 6.63947C23.581 6.86873 23.581 7.2482 23.3514 7.47746L20.4224 10.4025C20.3037 10.5211 20.1533 10.5764 20.0029 10.5764Z" fill="white"/>
<path d="M27.61 17.0039C27.4596 17.0039 27.3092 16.9485 27.1905 16.8299C26.9609 16.6007 26.9609 16.2212 27.1905 15.992L29.5337 13.6519C29.7633 13.4227 30.1432 13.4227 30.3728 13.6519C30.6024 13.8812 30.6024 14.2606 30.3728 14.4899L28.0296 16.8299C27.9188 16.9485 27.7684 17.0039 27.61 17.0039Z" fill="white"/>
</svg>
