<svg width="49" height="53" viewBox="0 0 49 53" fill="none" xmlns="http://www.w3.org/2000/svg">
<path d="M1 52H48" stroke="white" stroke-width="1.5" stroke-miterlimit="10" stroke-linecap="round" stroke-linejoin="round"/>
<path d="M3.23242 51.9999L3.34992 23.5782C3.34992 22.137 4.03142 20.7667 5.15942 19.8689L21.6094 6.99295C22.4369 6.34925 23.4536 6 24.4999 6C25.5462 6 26.5629 6.34925 27.3904 6.99295L43.8404 19.8453C44.9919 20.7431 45.6499 22.1134 45.6499 23.5782V51.9999" stroke="white" stroke-width="1.5" stroke-miterlimit="10" stroke-linejoin="round"/>
<path d="M26.85 40.1872H22.15C20.1995 40.1872 18.625 41.7701 18.625 43.7311V52H30.375V43.7311C30.375 41.7701 28.8005 40.1872 26.85 40.1872ZM18.625 32.5089H13.925C12.6325 32.5089 11.575 31.4457 11.575 30.1463V26.6024C11.575 25.303 12.6325 24.2399 13.925 24.2399H18.625C19.9175 24.2399 20.975 25.303 20.975 26.6024V30.1463C20.975 31.4457 19.9175 32.5089 18.625 32.5089ZM35.075 32.5089H30.375C29.0825 32.5089 28.025 31.4457 28.025 30.1463V26.6024C28.025 25.303 29.0825 24.2399 30.375 24.2399H35.075C36.3675 24.2399 37.425 25.303 37.425 26.6024V30.1463C37.425 31.4457 36.3675 32.5089 35.075 32.5089Z" stroke="white" stroke-width="1.5" stroke-miterlimit="10" stroke-linejoin="round"/>
<path d="M40.9503 16.5614V1.28198H32.7251V10.7179" stroke="white" stroke-width="1.5" stroke-miterlimit="10" stroke-linecap="round" stroke-linejoin="round"/>
</svg>
