<svg width="50" height="61" viewBox="0 0 50 61" fill="none" xmlns="http://www.w3.org/2000/svg">
<path d="M15.4008 12.7014C15.7766 12.5776 16.1451 12.5438 16.4275 12.5608C17.3533 12.5608 19.2048 13.1302 19.2048 15.4079C19.2048 17.6855 17.3533 18.255 16.4275 18.2549C15.5017 18.3108 13.6502 17.8195 13.6502 15.4079C13.6502 13.7319 14.5445 12.9833 15.4008 12.7014ZM15.4008 12.7014C13.4105 9.35267 10.6242 2.35109 15.4008 1.1346C21.3715 -0.386021 19.2106 12.4521 18.0215 11.5C13.6502 8 21 -2 26 2.7887C29.6928 6.32545 18.9234 16.3585 19.8208 12.5C20.4179 9.93242 32 5.81445 32 14C32 18.1072 19.955 19.1339 20.6416 17.1083C21.2745 15.241 22.9033 16.2855 25.5 18.3582M15.4008 12.7014C14.1072 7.52794 8.98536 3.06701 6 5.5C0.626358 9.87938 12.3249 18.2549 12 14.5C11.5239 8.99788 -0.5 18.5 2 22.5C5.13161 27.5106 16.6783 20 14.1405 18.2549C10 15.4079 11.0074 29.4586 15.6994 29.7223C20.6416 30 20.1112 16.3408 18.0215 18.7738C16.3496 20.7202 25.6177 29.3236 27.9394 24.8563C29.1679 22.4923 27.6876 20.1043 25.5 18.3582M25.5 18.3582C29.5536 19.3011 36.4614 23.1178 38.6197 31.7165M31.4556 60C33.8438 57.9725 38.7397 50.6938 39.2174 37.799C39.3006 35.5526 39.075 33.5305 38.6197 31.7165M38.6197 31.7165C37.7243 28.1784 37.9039 20.5326 45.7853 18.2549C55.6369 15.4079 39.8131 24.4175 38.6197 31.7165ZM38.6197 31.7165C35.5798 30.1443 28.3 28.2 23.5 33C17.5 39 36.2394 30.433 38.6197 31.7165Z" stroke="white" stroke-width="2"/>
</svg>
