<svg width="45" height="45" viewBox="0 0 45 45" fill="none" xmlns="http://www.w3.org/2000/svg">
<path d="M39.1477 0H41.4998C42.4278 -1.51495e-07 43.3178 0.368473 43.9741 1.02442C44.6305 1.68036 44.9995 2.57008 45 3.49799V5.85198C45.0015 11.334 42.9088 16.6095 39.1497 20.5999L36.6936 23.2079C35.6783 24.2852 34.613 25.3143 33.5014 26.2919V36.3679C33.5014 37.5979 32.8554 38.7359 31.8013 39.3679L22.7729 44.7859C22.5679 44.909 22.3365 44.9813 22.0979 44.9968C21.8593 45.0124 21.6205 44.9706 21.4013 44.8751C21.1821 44.7796 20.9889 44.6331 20.8378 44.4478C20.6867 44.2625 20.5821 44.0438 20.5327 43.8099L18.6066 34.6659C18.5071 34.5868 18.4136 34.5006 18.3266 34.4079L14.5824 30.4199L10.5942 26.6739C10.5015 26.587 10.4153 26.4934 10.3362 26.3939L1.19374 24.4679C0.959459 24.4191 0.740271 24.3148 0.554482 24.164C0.368693 24.0131 0.221697 23.82 0.125771 23.6008C0.0298442 23.3815 -0.0122283 23.1425 0.00306682 22.9037C0.0183619 22.6649 0.0905808 22.4332 0.213692 22.2279L5.63397 13.2C6.266 12.146 7.40406 11.5 8.63413 11.5H18.7086C19.6863 10.3897 20.7155 9.32587 21.7928 8.31198L24.4009 5.85198C28.3906 2.09384 33.6646 0.000646304 39.1457 0H39.1477ZM26.459 8.03598L23.8509 10.494C21.3963 12.8066 19.2122 15.3905 17.3406 18.1959L12.9543 24.7759L16.6725 28.2639C16.6962 28.2856 16.7189 28.3083 16.7405 28.3319L20.2267 32.0479L26.8031 27.6639C29.6111 25.7917 32.1972 23.6064 34.5115 21.1499L36.9676 18.5439C40.2025 15.1098 42.0034 10.5697 42.0018 5.85198V3.49999C42.0018 3.36738 41.9492 3.24021 41.8554 3.14644C41.7616 3.05267 41.6344 2.99999 41.5018 2.99999H39.1477C34.4309 3.00025 29.8922 4.80161 26.459 8.03598ZM11.5023 40.4999C9.08415 42.9179 3.69987 43.3899 2.01578 43.4799C1.94973 43.484 1.88355 43.4742 1.82153 43.4512C1.7595 43.4281 1.70303 43.3922 1.65577 43.3459C1.60944 43.2986 1.57357 43.2421 1.55048 43.1801C1.5274 43.1181 1.51761 43.0519 1.52176 42.9859C1.61176 41.3019 2.08379 35.9179 4.50191 33.4999C6.30201 31.6999 9.70218 31.6999 11.5023 33.4999C13.3024 35.2999 13.3024 38.6999 11.5023 40.4999ZM10.3182 23.3239L14.8424 16.534C15.3025 15.842 15.7825 15.164 16.2765 14.5H8.63413C8.54798 14.5 8.4633 14.5223 8.38831 14.5647C8.31332 14.6071 8.25056 14.6682 8.2061 14.742L3.87188 21.9659L10.3182 23.3239ZM30.5033 28.7239C29.8372 29.2199 29.1592 29.6979 28.4671 30.1599L21.6808 34.6839L23.0369 41.1299L30.2612 36.7959C30.335 36.7514 30.3961 36.6887 30.4385 36.6137C30.4809 36.5387 30.5032 36.454 30.5033 36.3679V28.7239ZM33.5034 14.5C33.5033 14.8941 33.4255 15.2843 33.2746 15.6483C33.1236 16.0124 32.9025 16.3431 32.6237 16.6217C32.3449 16.9003 32.014 17.1212 31.6498 17.2719C31.2857 17.4226 30.8954 17.5001 30.5012 17.5C30.1071 17.4998 29.7169 17.4221 29.3528 17.2711C28.9888 17.1202 28.658 16.899 28.3794 16.6203C28.1008 16.3415 27.8799 16.0106 27.7292 15.6465C27.5785 15.2823 27.501 14.8921 27.5011 14.498C27.5014 13.702 27.8178 12.9388 28.3808 12.3762C28.9438 11.8136 29.7073 11.4977 30.5033 11.498C31.2992 11.4982 32.0625 11.8147 32.6251 12.3776C33.1877 12.9406 33.5037 13.704 33.5034 14.5Z" fill="white"/>
</svg>
