<svg width="47" height="37" viewBox="0 0 47 37" fill="none" xmlns="http://www.w3.org/2000/svg">
<path d="M1 35.5875V33.5529C1 25.6873 7.37631 19.311 15.2419 19.311C23.1075 19.311 29.4837 25.6873 29.4837 33.5529V35.5875" stroke="white" stroke-width="2" stroke-linecap="round"/>
<path d="M25.4146 23.38C25.4146 17.7618 29.9691 13.2073 35.5873 13.2073C41.2055 13.2073 45.7601 17.7618 45.7601 23.38V24.3973" stroke="white" stroke-width="2" stroke-linecap="round"/>
<path d="M15.242 19.3111C19.7365 19.3111 23.3802 15.6674 23.3802 11.1729C23.3802 6.67827 19.7365 3.03467 15.242 3.03467C10.7474 3.03467 7.10376 6.67827 7.10376 11.1729C7.10376 15.6674 10.7474 19.3111 15.242 19.3111Z" stroke="white" stroke-width="2" stroke-linecap="round" stroke-linejoin="round"/>
<path d="M35.5875 13.2073C38.9586 13.2073 41.6912 10.4746 41.6912 7.10366C41.6912 3.73271 38.9586 1 35.5875 1C32.2165 1 29.4839 3.73271 29.4839 7.10366C29.4839 10.4746 32.2165 13.2073 35.5875 13.2073Z" stroke="white" stroke-width="2" stroke-linecap="round" stroke-linejoin="round"/>
</svg>
