<svg width="47" height="61" viewBox="0 0 47 61" fill="none" xmlns="http://www.w3.org/2000/svg">
<path d="M3.64706 6.29412C5.10898 6.29412 6.29412 5.10898 6.29412 3.64706C6.29412 2.18514 5.10898 1 3.64706 1C2.18514 1 1 2.18514 1 3.64706C1 5.10898 2.18514 6.29412 3.64706 6.29412Z" fill="white" stroke="white" stroke-width="2" stroke-linecap="round" stroke-linejoin="round"/>
<path d="M3.64697 56.5884H24.8234" stroke="white" stroke-width="2" stroke-linecap="round" stroke-linejoin="round"/>
<path d="M3.64697 56.5882V3.64697" stroke="white" stroke-width="2" stroke-linecap="round" stroke-linejoin="round"/>
<path d="M3.64706 59.2353C5.10898 59.2353 6.29412 58.0502 6.29412 56.5882C6.29412 55.1263 5.10898 53.9412 3.64706 53.9412C2.18514 53.9412 1 55.1263 1 56.5882C1 58.0502 2.18514 59.2353 3.64706 59.2353Z" fill="white" stroke="white" stroke-width="2" stroke-linecap="round" stroke-linejoin="round"/>
<path d="M11.5881 9.45274C15.2135 5.81994 19.8155 3.64697 24.8234 3.64697C36.5189 3.64697 45.9999 15.4983 45.9999 30.1176C45.9999 38.7766 42.6739 46.4645 37.5314 51.294" stroke="white" stroke-width="2" stroke-linecap="round" stroke-linejoin="round" stroke-dasharray="8.42 8.42"/>
<path d="M12.1154 51.2939C10.9599 50.2087 9.89614 48.9791 8.94116 47.6267" stroke="white" stroke-width="2" stroke-linecap="round" stroke-linejoin="round"/>
<path d="M24.8236 59.2353C26.2855 59.2353 27.4706 58.0502 27.4706 56.5882C27.4706 55.1263 26.2855 53.9412 24.8236 53.9412C23.3616 53.9412 22.1765 55.1263 22.1765 56.5882C22.1765 58.0502 23.3616 59.2353 24.8236 59.2353Z" fill="white" stroke="white" stroke-width="2" stroke-linecap="round" stroke-linejoin="round"/>
</svg>
