<svg width="46" height="39" viewBox="0 0 46 39" fill="none" xmlns="http://www.w3.org/2000/svg">
<path d="M32.7358 39H12.9196C11.3596 39 9.77855 37.8827 9.25152 36.4281L0.523963 11.9951C-0.551165 8.91729 0.228828 7.50486 1.07207 6.87243C1.91531 6.23999 3.49639 5.86053 6.15261 7.75783L14.3742 13.6394C14.6272 13.787 14.8591 13.8503 15.0277 13.8081C15.2175 13.7449 15.365 13.5762 15.4704 13.2811L19.1807 3.39405C20.298 0.442702 21.9423 0 22.8277 0C23.7131 0 25.3574 0.442702 26.4747 3.39405L30.185 13.2811C30.2904 13.5551 30.4379 13.7449 30.6277 13.8081C30.8174 13.8713 31.0493 13.8081 31.2812 13.6184L38.9969 8.11621C41.8217 6.09243 43.466 6.49297 44.3725 7.14648C45.2579 7.82107 46.0801 9.31783 44.9206 12.5854L36.4039 36.4281C35.8769 37.8827 34.2958 39 32.7358 39ZM3.18018 9.65512C3.22234 9.95026 3.30666 10.3719 3.51747 10.92L12.245 35.353C12.3294 35.5638 12.7088 35.8378 12.9196 35.8378H32.7358C32.9677 35.8378 33.3471 35.5638 33.4104 35.353L41.9271 11.5313C42.2223 10.7303 42.3066 10.1822 42.3277 9.86594C42.0115 9.97134 41.5266 10.2032 40.8309 10.7092L33.1152 16.2113C32.0612 16.9492 30.8174 17.1811 29.7001 16.8438C28.5828 16.5065 27.6763 15.6211 27.2125 14.4194L23.5023 4.53243C23.2282 3.79459 22.9753 3.43621 22.8277 3.26756C22.6801 3.43621 22.4271 3.79459 22.1531 4.51135L18.4429 14.3984C18.0002 15.6 17.0937 16.4854 15.9553 16.8227C14.838 17.16 13.5731 16.9281 12.5402 16.1903L4.31855 10.3086C3.83369 9.97134 3.45423 9.76053 3.18018 9.65512Z" fill="white"/>
<path d="M28.097 28.5018H17.5564C16.6921 28.5018 15.9753 27.785 15.9753 26.9207C15.9753 26.0564 16.6921 25.3396 17.5564 25.3396H28.097C28.9613 25.3396 29.678 26.0564 29.678 26.9207C29.678 27.785 28.9613 28.5018 28.097 28.5018Z" fill="white"/>
</svg>
