<svg width="56" height="39" viewBox="0 0 56 39" fill="none" xmlns="http://www.w3.org/2000/svg">
<path d="M41.1395 33.8413C47.2212 42.3557 56.8269 36.0674 54.5193 27.7596C51.0534 15.2826 49.1676 8.33591 48.1867 4.66832C47.6097 2.51157 45.655 1 43.4223 1H12.097C9.86442 1 7.91871 2.51997 7.37585 4.68552C5.33398 12.8314 3.51214 19.9789 1.35082 27.7596C-0.95695 36.0674 8.64888 42.3557 14.7306 33.8413" stroke="white" stroke-width="2" stroke-linecap="round" stroke-linejoin="round"/>
<path d="M42.3557 11.947L42.3827 11.9713" stroke="white" stroke-width="2" stroke-linecap="round" stroke-linejoin="round"/>
<path d="M38.6824 8.2981L38.7094 8.32242" stroke="white" stroke-width="2" stroke-linecap="round" stroke-linejoin="round"/>
<path d="M38.6824 15.5962L38.7094 15.6205" stroke="white" stroke-width="2" stroke-linecap="round" stroke-linejoin="round"/>
<path d="M35.0576 11.947L35.0846 11.9713" stroke="white" stroke-width="2" stroke-linecap="round" stroke-linejoin="round"/>
<path d="M15.5962 8.2981V15.5962" stroke="white" stroke-width="2" stroke-linecap="round" stroke-linejoin="round"/>
<path d="M11.947 11.947H19.2451" stroke="white" stroke-width="2" stroke-linecap="round" stroke-linejoin="round"/>
<path d="M18.0287 30.1922C20.7158 30.1922 22.8941 28.0139 22.8941 25.3268C22.8941 22.6397 20.7158 20.4614 18.0287 20.4614C15.3416 20.4614 13.1633 22.6397 13.1633 25.3268C13.1633 28.0139 15.3416 30.1922 18.0287 30.1922Z" stroke="white" stroke-width="2" stroke-linecap="round" stroke-linejoin="round"/>
<path d="M37.4904 30.1922C40.1775 30.1922 42.3558 28.0139 42.3558 25.3268C42.3558 22.6397 40.1775 20.4614 37.4904 20.4614C34.8032 20.4614 32.625 22.6397 32.625 25.3268C32.625 28.0139 34.8032 30.1922 37.4904 30.1922Z" stroke="white" stroke-width="2" stroke-linecap="round" stroke-linejoin="round"/>
</svg>
