<svg width="46" height="48" viewBox="0 0 46 48" fill="none" xmlns="http://www.w3.org/2000/svg">
<path d="M44.5788 1L42.1577 3.42105" stroke="white" stroke-width="2" stroke-linecap="round" stroke-linejoin="round"/>
<path d="M1 1L3.42105 3.42105" stroke="white" stroke-width="2" stroke-linecap="round" stroke-linejoin="round"/>
<path d="M44.5788 34.8949L42.1577 32.4739" stroke="white" stroke-width="2" stroke-linecap="round" stroke-linejoin="round"/>
<path d="M1 34.8949L3.42105 32.4739" stroke="white" stroke-width="2" stroke-linecap="round" stroke-linejoin="round"/>
<path d="M15.5264 39.7368H30.0527" stroke="white" stroke-width="2" stroke-linecap="round" stroke-linejoin="round"/>
<path d="M17.9473 47H27.6315" stroke="white" stroke-width="2" stroke-linecap="round" stroke-linejoin="round"/>
<path d="M22.7889 3.4209C13.1045 3.4209 8.14655 8.14265 8.26274 15.5262C8.31937 19.126 9.4729 21.5788 11.8943 23.9998C14.3157 26.4209 15.5263 27.6314 15.5259 32.4735H30.0521C30.0526 27.6317 31.2631 26.4209 33.6834 24.0001C36.1042 21.579 37.2588 19.126 37.3152 15.5262C37.4315 8.14265 32.4736 3.4209 22.7889 3.4209Z" stroke="white" stroke-width="2" stroke-linecap="round" stroke-linejoin="round"/>
</svg>
