<svg width="35" height="59" viewBox="0 0 35 59" fill="none" xmlns="http://www.w3.org/2000/svg">
<path d="M29.1667 0H5.83333C4.28624 0 2.80251 0.621605 1.70854 1.72807C0.614581 2.83453 0 4.33522 0 5.9V53.1C0 54.6648 0.614581 56.1655 1.70854 57.2719C2.80251 58.3784 4.28624 59 5.83333 59H29.1667C30.7138 59 32.1975 58.3784 33.2915 57.2719C34.3854 56.1655 35 54.6648 35 53.1V5.9C35 4.33522 34.3854 2.83453 33.2915 1.72807C32.1975 0.621605 30.7138 0 29.1667 0ZM20 58.5H15V57H20V58.5ZM32.5 56.5H2.5V3.5H32.5V56.5Z" fill="white"/>
<path d="M13 19H10C9.73478 19 9.48043 19.1109 9.29289 19.3083C9.10536 19.5057 9 19.7735 9 20.0526V23.2105H14V20.0526C14 19.7735 13.8946 19.5057 13.7071 19.3083C13.5196 19.1109 13.2652 19 13 19ZM20 20.0526V23.2105H25V20.0526C25 19.7735 24.8946 19.5057 24.7071 19.3083C24.5196 19.1109 24.2652 19 24 19H21C20.7348 19 20.4804 19.1109 20.2929 19.3083C20.1054 19.5057 20 19.7735 20 20.0526ZM20 30.5789C20 31.4165 19.6839 32.2197 19.1213 32.8119C18.5587 33.4041 17.7956 33.7368 17 33.7368C16.2044 33.7368 15.4413 33.4041 14.8787 32.8119C14.3161 32.2197 14 31.4165 14 30.5789V25.3158H9V30.5789C9 32.8124 9.84285 34.9543 11.3431 36.5335C12.8434 38.1128 14.8783 39 17 39C19.1217 39 21.1566 38.1128 22.6569 36.5335C24.1571 34.9543 25 32.8124 25 30.5789V25.3158H20V30.5789Z" fill="white"/>
</svg>
