<svg width="85" height="85" viewBox="0 0 85 85" fill="none" xmlns="http://www.w3.org/2000/svg">
<path d="M47.8911 33.9365C46.346 37.7893 42.4731 43.0267 39.2323 45.6253L37.2558 47.2106C37.0049 47.3912 36.7541 47.5517 36.4732 47.6621C36.4732 47.4815 36.4631 47.2808 36.433 47.0902C36.3227 46.2474 35.9414 45.4648 35.2692 44.7926C34.5869 44.1103 33.7541 43.709 32.9013 43.5986C32.7006 43.5886 32.5 43.5685 32.2993 43.5886C32.4097 43.2775 32.5802 42.9866 32.7909 42.7458L34.3561 40.7692C36.9447 37.5285 42.2022 33.6355 46.045 32.1004C46.6369 31.8797 47.2088 32.0402 47.57 32.4115C47.9513 32.7827 48.1319 33.3546 47.8911 33.9365Z" stroke="white" stroke-linecap="round" stroke-linejoin="round"/>
<path d="M36.4731 47.6622C36.4731 48.7658 36.0517 49.8192 35.259 50.6219C34.647 51.2339 33.8142 51.6554 32.8209 51.7859L30.3527 52.0568C29.0083 52.2073 27.8544 51.0634 28.015 49.6988L28.2859 47.2307C28.5267 45.0334 30.3628 43.6288 32.3092 43.5886C32.5099 43.5786 32.7206 43.5885 32.9112 43.5986C33.7641 43.7089 34.5968 44.1003 35.2791 44.7926C35.9513 45.4649 36.3326 46.2474 36.443 47.0902C36.453 47.2808 36.4731 47.4715 36.4731 47.6622Z" stroke="white" stroke-linecap="round" stroke-linejoin="round"/>
<path d="M40.2956 44.5016C40.2956 41.8829 38.1685 39.7559 35.5498 39.7559" stroke="white" stroke-linecap="round" stroke-linejoin="round"/>
<path d="M56.2338 33.2002C56.2338 47.9818 56.2338 56.2693 56.2338 71.0509C42.1934 74.1318 34.4288 74.5339 20.9351 71.0509C20.9351 56.2693 20.9351 47.9818 20.9351 33.2002" stroke="white" stroke-width="2"/>
<path d="M20.9351 33.2004L12.4293 40.005L6.05005 30.6485L20.9351 17.4646H30.2914" stroke="white" stroke-width="2"/>
<path d="M56.2339 33.4972L64.7396 40.4301L71.1189 30.8971L56.2339 17.4646H46.8776" stroke="white" stroke-width="2"/>
<path d="M29.77 17.0115C32.3217 21.548 32.747 23.8161 38.701 23.8161C44.655 23.8161 45.3702 21.5114 47.632 17.0115" stroke="white" stroke-width="2"/>
</svg>
