<svg width="48" height="44" viewBox="0 0 48 44" fill="none" xmlns="http://www.w3.org/2000/svg">
<path d="M1 28.3567V14.6784C1 7.12401 7.12401 1 14.6784 1H32.9162C40.4705 1 46.5945 7.12401 46.5945 14.6784V28.3567C46.5945 35.9111 40.4705 42.0351 32.9162 42.0351H14.6784C7.12401 42.0351 1 35.9111 1 28.3567Z" stroke="white" stroke-width="2"/>
<path d="M26.0769 29.4967V23.1134M26.0769 23.1134V13.5386H32.5903C34.2187 13.5386 37.4755 13.5386 37.4755 18.326C37.4755 23.1134 34.2187 23.1134 32.5903 23.1134M26.0769 23.1134C27.1625 23.1134 29.985 23.1134 32.5903 23.1134M32.5903 23.1134L37.4755 29.4967" stroke="white" stroke-width="2" stroke-linecap="round" stroke-linejoin="round"/>
<path d="M21.5175 13.5386L14.6783 29.4967L7.83911 13.5386" stroke="white" stroke-width="2" stroke-linecap="round" stroke-linejoin="round"/>
</svg>
