<svg width="45" height="44" viewBox="0 0 45 44" fill="none" xmlns="http://www.w3.org/2000/svg">
<path d="M42.4863 31.7442L36.0538 16.7214C33.8754 11.6247 29.868 11.4192 27.1758 16.2693L23.2917 23.2772C21.3188 26.8325 17.6402 27.1408 15.0919 23.9554L14.6398 23.3799C11.9887 20.0507 8.2484 20.4617 6.33715 24.2636L2.80238 31.3537C0.315709 36.286 3.91213 42.1019 9.4198 42.1019H35.6428C40.9861 42.1019 44.5825 36.6559 42.4863 31.7442Z" stroke="white" stroke-width="2" stroke-linecap="round" stroke-linejoin="round"/>
<path d="M12.2559 13.3306C15.6609 13.3306 18.4212 10.5703 18.4212 7.1653C18.4212 3.76031 15.6609 1 12.2559 1C8.85088 1 6.09058 3.76031 6.09058 7.1653C6.09058 10.5703 8.85088 13.3306 12.2559 13.3306Z" stroke="white" stroke-width="2" stroke-linecap="round" stroke-linejoin="round"/>
</svg>
