<svg width="45" height="58" viewBox="0 0 45 58" fill="none" xmlns="http://www.w3.org/2000/svg">
<path fill-rule="evenodd" clip-rule="evenodd" d="M31.8834 1C32.4342 4.02915 31.0573 7.0583 29.405 9.26132C27.7527 11.4643 24.7236 13.392 21.6944 13.1166C21.1437 10.0874 22.5206 7.33368 24.1728 5.13066C26.1005 2.92764 29.1296 1.27538 31.8834 1ZM40.6955 48.9156C42.0724 46.7126 42.8985 45.3357 44 42.8573C35.4633 39.5528 34.0864 27.4362 42.6231 23.0302C40.1447 19.7257 36.5648 18.0734 32.9849 18.0734C30.5065 18.0734 28.8543 18.6241 27.202 19.1749C25.8251 19.7257 24.7236 20.001 23.3467 20.001C21.6944 20.001 20.5929 19.4503 18.9407 18.8995C17.2884 18.3488 15.6363 17.798 13.7086 17.798C9.85334 17.798 5.72268 20.001 3.24428 24.1317C-0.335621 29.6392 0.215134 40.3789 5.99806 49.191C8.47645 52.4955 11.2302 56.0754 14.8101 56.0754C16.4624 56.0754 17.2884 55.5247 18.3899 55.2493C19.7668 54.6986 21.1437 54.1478 23.3467 54.1478C25.8251 54.1478 26.9266 54.6986 28.3035 55.2493C29.405 55.8001 30.2311 56.0754 31.8834 56.0754C35.7387 56.0754 38.4925 51.9448 40.6955 48.9156Z" stroke="white" stroke-width="2" stroke-miterlimit="10" stroke-linecap="round" stroke-linejoin="round"/>
</svg>
