<svg width="48" height="48" viewBox="0 0 48 48" fill="none" xmlns="http://www.w3.org/2000/svg">
<path d="M11.212 1H36.765C44.953 1 47 3.047 47 11.212V25.771C47 33.959 44.953 35.983 36.788 35.983H11.212C3.047 36.006 1 33.959 1 25.794V11.212C1 3.047 3.047 1 11.212 1Z" stroke="white" stroke-width="2" stroke-linecap="round" stroke-linejoin="round"/>
<path d="M24 36.0061V47.0001" stroke="white" stroke-width="2" stroke-linecap="round" stroke-linejoin="round"/>
<path d="M1 26.3H47" stroke="white" stroke-width="2" stroke-linecap="round" stroke-linejoin="round"/>
<path d="M13.6499 47H34.3499" stroke="white" stroke-width="2" stroke-linecap="round" stroke-linejoin="round"/>
<path d="M28.993 21.7362H25.8793C23.9955 21.7362 22.9602 20.7008 22.9602 18.8171V7.9191C22.9602 6.03531 23.9955 5 25.8793 5H28.993C30.8768 5 31.9121 6.03531 31.9121 7.9191V18.8171C31.9121 20.7008 30.869 21.7362 28.993 21.7362ZM25.8793 6.16764C24.6494 6.16764 24.1278 6.68918 24.1278 7.9191V18.8171C24.1278 20.047 24.6494 20.5685 25.8793 20.5685H28.993C30.2229 20.5685 30.7445 20.047 30.7445 18.8171V7.9191C30.7445 6.68918 30.2229 6.16764 28.993 6.16764H25.8793Z" fill="white"/>
<path d="M27.4362 9.28141H23.544C23.2249 9.28141 22.9602 9.01674 22.9602 8.69759C22.9602 8.37843 23.2249 8.11377 23.544 8.11377H27.4362C27.7553 8.11377 28.02 8.37843 28.02 8.69759C28.02 9.01674 27.7553 9.28141 27.4362 9.28141Z" fill="white"/>
<path d="M26.6577 18.6225H23.544C23.2249 18.6225 22.9602 18.3578 22.9602 18.0387C22.9602 17.7195 23.2249 17.4548 23.544 17.4548H26.6577C26.9769 17.4548 27.2415 17.7195 27.2415 18.0387C27.2415 18.3578 26.9769 18.6225 26.6577 18.6225Z" fill="white"/>
<path d="M27.4363 15.5088C27.4285 15.5088 27.4285 15.5088 27.4363 15.5088L23.5364 15.4699C23.2173 15.4699 22.9526 15.2052 22.9604 14.8783C22.9604 14.5591 23.225 14.3022 23.5442 14.3022H23.552L27.4441 14.3412C27.7633 14.3412 28.0279 14.6058 28.0201 14.9328C28.0124 15.2519 27.7555 15.5088 27.4363 15.5088Z" fill="white"/>
<path d="M25.8793 12.3949H23.544C23.2249 12.3949 22.9602 12.1303 22.9602 11.8111C22.9602 11.492 23.2249 11.2273 23.544 11.2273H25.8793C26.1985 11.2273 26.4631 11.492 26.4631 11.8111C26.4631 12.1303 26.1985 12.3949 25.8793 12.3949Z" fill="white"/>
<path d="M18.888 21.7128C18.1796 21.7128 17.5101 21.2769 17.0509 20.514L16.4126 19.4554C16.179 19.0662 16 18.4278 16 17.9764V7.88017C16 6.29219 17.2922 5 18.8802 5C20.4682 5 21.7604 6.29219 21.7604 7.88017V17.9686C21.7604 18.4201 21.5813 19.0584 21.3478 19.4476L20.7095 20.5062C20.2658 21.2769 19.5963 21.7128 18.888 21.7128ZM18.888 6.16764C17.9461 6.16764 17.1754 6.93828 17.1754 7.88017V17.9686C17.1754 18.2099 17.2922 18.638 17.4167 18.8482L18.055 19.9069C18.2964 20.3116 18.5999 20.5374 18.888 20.5374C19.176 20.5374 19.4796 20.3038 19.7209 19.9069L20.3592 18.8482C20.4837 18.638 20.6005 18.2099 20.6005 17.9686V7.88017C20.6005 6.93828 19.8299 6.16764 18.888 6.16764Z" fill="white"/>
<path d="M21.1843 10.0597H16.5838C16.2647 10.0597 16 9.79506 16 9.47591C16 9.15675 16.2647 8.89209 16.5838 8.89209H21.1843C21.5035 8.89209 21.7681 9.15675 21.7681 9.47591C21.7681 9.79506 21.5035 10.0597 21.1843 10.0597Z" fill="white"/>
</svg>
