<svg width="51" height="50" viewBox="0 0 51 50" fill="none" xmlns="http://www.w3.org/2000/svg">
<path d="M20.3763 2.52707L3.74377 15.8476C1.8717 17.3356 0.671655 20.4798 1.07967 22.8319L4.27179 41.9366C4.84781 45.3448 8.11193 48.1049 11.5681 48.1049H38.449C41.8812 48.1049 45.1693 45.3208 45.7453 41.9366L48.9374 22.8319C49.3214 20.4798 48.1214 17.3356 46.2733 15.8476L29.6407 2.55107C27.0726 0.486994 22.9204 0.486994 20.3763 2.52707Z" stroke="white" stroke-width="2" stroke-linecap="round" stroke-linejoin="round"/>
<path d="M34.8911 17.9365C33.346 21.7893 29.4731 27.0267 26.2323 29.6253L24.2558 31.2106C24.0049 31.3912 23.7541 31.5517 23.4732 31.6621C23.4732 31.4815 23.4631 31.2808 23.433 31.0902C23.3227 30.2474 22.9414 29.4648 22.2692 28.7926C21.5869 28.1103 20.7541 27.709 19.9013 27.5986C19.7006 27.5886 19.5 27.5685 19.2993 27.5886C19.4097 27.2775 19.5802 26.9866 19.7909 26.7458L21.3561 24.7692C23.9447 21.5285 29.2022 17.6355 33.045 16.1004C33.6369 15.8797 34.2088 16.0402 34.57 16.4115C34.9513 16.7827 35.1319 17.3546 34.8911 17.9365Z" stroke="white" stroke-linecap="round" stroke-linejoin="round"/>
<path d="M23.4731 31.6622C23.4731 32.7658 23.0517 33.8192 22.259 34.6219C21.647 35.2339 20.8142 35.6554 19.8209 35.7859L17.3527 36.0568C16.0083 36.2073 14.8544 35.0634 15.015 33.6988L15.2859 31.2307C15.5267 29.0334 17.3628 27.6288 19.3092 27.5886C19.5099 27.5786 19.7206 27.5885 19.9112 27.5986C20.7641 27.7089 21.5968 28.1003 22.2791 28.7926C22.9513 29.4649 23.3326 30.2474 23.443 31.0902C23.453 31.2808 23.4731 31.4715 23.4731 31.6622Z" stroke="white" stroke-linecap="round" stroke-linejoin="round"/>
<path d="M27.2956 28.5016C27.2956 25.8829 25.1685 23.7559 22.5498 23.7559" stroke="white" stroke-linecap="round" stroke-linejoin="round"/>
</svg>
