<svg width="58" height="49" viewBox="0 0 58 49" fill="none" xmlns="http://www.w3.org/2000/svg">
<path d="M6.78678 6.46463H30.5901M2.9999 0.999512H35.9999C34.6665 10.1663 32.7997 29.8 35.9999 35C39.2 40.2 37.3333 45.833 35.9999 47.9995H2.9999C4.26219 46.1663 6.0294 41 2.9999 35C-0.0296116 29 1.7376 9.83301 2.9999 0.999512Z" stroke="white" stroke-width="2"/>
<path d="M6.5 12.9995H22.5" stroke="white" stroke-width="1.5"/>
<path d="M9 18.9995H30" stroke="white" stroke-width="2"/>
<path d="M6.5 25.4995H24.5" stroke="white" stroke-width="2"/>
<path d="M8 31.9995H29" stroke="white" stroke-width="2"/>
<path d="M52.006 46.6513L47.3193 33.0562M52.006 46.6513C52.9723 45.0506 54.7487 41.3961 54.1238 39.5834L51.9345 36.5355M52.006 46.6513C50.1935 45.7973 46.4514 43.7494 45.9827 42.3899C45.7937 41.8416 45.3442 40.5378 44.811 38.9912M43.4138 21.727L41.0705 14.9295L45.0536 26.4837M43.4138 21.727C44.635 21.3061 47.7566 22.765 49.1648 23.5471C49.6931 25.0796 50.3939 27.1126 51.1176 29.2117M43.4138 21.727C42.2522 22.7613 40.0462 25.1696 40.5149 26.5291C40.7243 27.1366 41.5135 29.4258 42.4677 32.1937M43.4138 21.727L45.0536 26.4837M45.0536 26.4837L42.4677 32.1937M45.0536 26.4837L51.1176 29.2117M45.0536 26.4837L47.3193 33.0562M42.4677 32.1937C43.0503 33.8837 44.0222 36.7031 44.811 38.9912M51.1176 29.2117L55.0644 37.3578L51.9345 36.5355M47.3193 33.0562L51.9345 36.5355M47.3193 33.0562L44.811 38.9912" stroke="white" stroke-width="2"/>
</svg>
