<svg width="51" height="51" viewBox="0 0 51 51" fill="none" xmlns="http://www.w3.org/2000/svg">
<path d="M18.15 50H32.85C45.1 50 50 45.1 50 32.85V18.15C50 5.9 45.1 1 32.85 1H18.15C5.9 1 1 5.9 1 18.15V32.85C1 45.1 5.9 50 18.15 50Z" stroke="white" stroke-width="2" stroke-linecap="round" stroke-linejoin="round"/>
<path d="M12.5149 18.7871L25.4998 26.3086L38.3868 18.8361" stroke="white" stroke-width="2" stroke-linecap="round" stroke-linejoin="round"/>
<path d="M25.5 39.6367V26.2842" stroke="white" stroke-width="2" stroke-linecap="round" stroke-linejoin="round"/>
<path d="M22.462 11.5107L14.622 15.8717C12.858 16.8517 11.3879 19.3262 11.3879 21.3598V29.6653C11.3879 31.6988 12.8335 34.1733 14.622 35.1533L22.462 39.5143C24.128 40.4453 26.872 40.4453 28.5625 39.5143L36.4025 35.1533C38.1665 34.1733 39.6365 31.6988 39.6365 29.6653V21.3353C39.6365 19.3017 38.191 16.8272 36.4025 15.8472L28.5625 11.4862C26.872 10.5552 24.128 10.5552 22.462 11.5107Z" stroke="white" stroke-width="2" stroke-linecap="round" stroke-linejoin="round"/>
</svg>
