<svg width="61" height="61" viewBox="0 0 61 61" fill="none" xmlns="http://www.w3.org/2000/svg">
<path d="M47.7697 16.0855C47.5943 16.0563 47.3897 16.0563 47.2143 16.0855C43.1798 15.9393 39.9639 12.6357 39.9639 8.54274C39.9639 4.36208 43.3259 1 47.5066 1C51.6873 1 55.0494 4.39131 55.0494 8.54274C55.0201 12.6357 51.8042 15.9393 47.7697 16.0855Z" stroke="white" stroke-width="2" stroke-linecap="round" stroke-linejoin="round"/>
<path d="M44.7581 37.3685C48.7634 38.0409 53.1779 37.3392 56.2769 35.2635C60.3991 32.5154 60.3991 28.0131 56.2769 25.265C53.1487 23.1894 48.6757 22.4877 44.6704 23.1894" stroke="white" stroke-width="2" stroke-linecap="round" stroke-linejoin="round"/>
<path d="M12.5992 16.0855C12.7746 16.0563 12.9793 16.0563 13.1547 16.0855C17.1892 15.9393 20.4051 12.6357 20.4051 8.54274C20.4051 4.36208 17.043 1 12.8623 1C8.68166 1 5.31958 4.39131 5.31958 8.54274C5.34882 12.6357 8.56471 15.9393 12.5992 16.0855Z" stroke="white" stroke-width="2" stroke-linecap="round" stroke-linejoin="round"/>
<path d="M15.6104 37.3685C11.6052 38.0409 7.1906 37.3392 4.09165 35.2635C-0.0305492 32.5154 -0.0305492 28.0131 4.09165 25.265C7.21984 23.1894 11.6929 22.4877 15.6981 23.1894" stroke="white" stroke-width="2" stroke-linecap="round" stroke-linejoin="round"/>
<path d="M30.2286 37.9244C30.0532 37.8952 29.8485 37.8952 29.6731 37.9244C25.6386 37.7783 22.4226 34.4747 22.4226 30.3817C22.4226 26.201 25.7848 22.8389 29.9655 22.8389C34.1461 22.8389 37.5082 26.2303 37.5082 30.3817C37.479 34.4747 34.2631 37.8075 30.2286 37.9244Z" stroke="white" stroke-width="2" stroke-linecap="round" stroke-linejoin="round"/>
<path d="M21.7208 47.1338C17.5986 49.8819 17.5986 54.3842 21.7208 57.1323C26.3986 60.2605 34.0582 60.2605 38.7359 57.1323C42.8581 54.3842 42.8581 49.8819 38.7359 47.1338C34.0875 44.0348 26.3986 44.0348 21.7208 47.1338Z" stroke="white" stroke-width="2" stroke-linecap="round" stroke-linejoin="round"/>
</svg>
