<svg width="38" height="43" viewBox="0 0 38 43" fill="none" xmlns="http://www.w3.org/2000/svg">
<path d="M7.6152 42.4494C3.42389 42.4494 0 39.0255 0 34.8342C0 30.6429 3.42389 27.219 7.6152 27.219C11.8065 27.219 15.2305 30.6429 15.2305 34.8342C15.2305 39.0255 11.8065 42.4494 7.6152 42.4494ZM7.6152 30.1706C5.03745 30.1706 2.95163 32.2564 2.95163 34.8342C2.95163 37.412 5.03745 39.4978 7.6152 39.4978C10.193 39.4978 12.2788 37.412 12.2788 34.8342C12.2788 32.2564 10.193 30.1706 7.6152 30.1706Z" fill="white"/>
<path d="M13.7551 36.3107C12.9483 36.3107 12.2793 35.6416 12.2793 34.8349V10.0806C12.2793 6.97152 14.1487 4.53151 17.1397 3.72473L29.4184 0.379551C31.9175 -0.309163 34.023 -0.0533545 35.4988 1.08794C36.9943 2.22924 37.742 4.13796 37.742 6.75507V30.7616C37.742 31.5684 37.073 32.2374 36.2662 32.2374C35.4595 32.2374 34.7904 31.5684 34.7904 30.7616V6.73539C34.7904 5.5941 34.5936 4.0986 33.7081 3.42957C32.7439 2.68182 31.091 2.97699 30.1859 3.23279L17.9071 6.57797C16.1951 7.05023 15.2309 8.32927 15.2309 10.1003V34.8545C15.2309 35.6416 14.5619 36.3107 13.7551 36.3107Z" fill="white"/>
<path d="M30.1252 38.3574C25.9339 38.3574 22.51 34.9335 22.51 30.7422C22.51 26.5508 25.9339 23.127 30.1252 23.127C34.3165 23.127 37.7404 26.5508 37.7404 30.7422C37.7404 34.9335 34.3165 38.3574 30.1252 38.3574ZM30.1252 26.0786C27.5475 26.0786 25.4616 28.1644 25.4616 30.7422C25.4616 33.3199 27.5475 35.4057 30.1252 35.4057C32.703 35.4057 34.7888 33.3199 34.7888 30.7422C34.7888 28.1644 32.703 26.0786 30.1252 26.0786Z" fill="white"/>
<path d="M13.7538 17.8919C13.1044 17.8919 12.5141 17.459 12.337 16.8096C12.1205 16.0225 12.5731 15.196 13.3602 14.9796L35.8713 8.84017C36.6584 8.62372 37.4652 9.09598 37.6816 9.88308C37.8981 10.6702 37.4258 11.477 36.6387 11.6934L14.1473 17.8328C14.0096 17.8722 13.8718 17.8919 13.7538 17.8919Z" fill="white"/>
</svg>
