<svg width="264" height="73" viewBox="0 0 264 73" fill="none" xmlns="http://www.w3.org/2000/svg">
<path d="M18.825 72L1.65 19.5H14.25L29.175 66H22.875L38.475 19.5H49.725L64.725 66H58.65L73.95 19.5H85.575L68.4 72H55.35L42.075 31.2H45.525L31.875 72H18.825ZM92.192 72V31.65H103.892V72H92.192ZM98.042 26.025C95.892 26.025 94.142 25.4 92.792 24.15C91.442 22.9 90.767 21.35 90.767 19.5C90.767 17.65 91.442 16.1 92.792 14.85C94.142 13.6 95.892 12.975 98.042 12.975C100.192 12.975 101.942 13.575 103.292 14.775C104.642 15.925 105.317 17.425 105.317 19.275C105.317 21.225 104.642 22.85 103.292 24.15C101.992 25.4 100.242 26.025 98.042 26.025ZM132.076 72.6C128.276 72.6 124.851 71.75 121.801 70.05C118.751 68.3 116.326 65.875 114.526 62.775C112.776 59.675 111.901 56.025 111.901 51.825C111.901 47.575 112.776 43.9 114.526 40.8C116.326 37.7 118.751 35.3 121.801 33.6C124.851 31.9 128.276 31.05 132.076 31.05C135.476 31.05 138.451 31.8 141.001 33.3C143.551 34.8 145.526 37.075 146.926 40.125C148.326 43.175 149.026 47.075 149.026 51.825C149.026 56.525 148.351 60.425 147.001 63.525C145.651 66.575 143.701 68.85 141.151 70.35C138.651 71.85 135.626 72.6 132.076 72.6ZM134.101 63C136.001 63 137.726 62.55 139.276 61.65C140.826 60.75 142.051 59.475 142.951 57.825C143.901 56.125 144.376 54.125 144.376 51.825C144.376 49.475 143.901 47.475 142.951 45.825C142.051 44.175 140.826 42.9 139.276 42C137.726 41.1 136.001 40.65 134.101 40.65C132.151 40.65 130.401 41.1 128.851 42C127.301 42.9 126.051 44.175 125.101 45.825C124.201 47.475 123.751 49.475 123.751 51.825C123.751 54.125 124.201 56.125 125.101 57.825C126.051 59.475 127.301 60.75 128.851 61.65C130.401 62.55 132.151 63 134.101 63ZM144.676 72V63.75L144.901 51.75L144.151 39.825V16.35H155.851V72H144.676ZM186.704 72.6C182.104 72.6 178.054 71.7 174.554 69.9C171.104 68.1 168.429 65.65 166.529 62.55C164.629 59.4 163.679 55.825 163.679 51.825C163.679 47.775 164.604 44.2 166.454 41.1C168.354 37.95 170.929 35.5 174.179 33.75C177.429 31.95 181.104 31.05 185.204 31.05C189.154 31.05 192.704 31.9 195.854 33.6C199.054 35.25 201.579 37.65 203.429 40.8C205.279 43.9 206.204 47.625 206.204 51.975C206.204 52.425 206.179 52.95 206.129 53.55C206.079 54.1 206.029 54.625 205.979 55.125H173.204V48.3H199.829L195.329 50.325C195.329 48.225 194.904 46.4 194.054 44.85C193.204 43.3 192.029 42.1 190.529 41.25C189.029 40.35 187.279 39.9 185.279 39.9C183.279 39.9 181.504 40.35 179.954 41.25C178.454 42.1 177.279 43.325 176.429 44.925C175.579 46.475 175.154 48.325 175.154 50.475V52.275C175.154 54.475 175.629 56.425 176.579 58.125C177.579 59.775 178.954 61.05 180.704 61.95C182.504 62.8 184.604 63.225 187.004 63.225C189.154 63.225 191.029 62.9 192.629 62.25C194.279 61.6 195.779 60.625 197.129 59.325L203.354 66.075C201.504 68.175 199.179 69.8 196.379 70.95C193.579 72.05 190.354 72.6 186.704 72.6ZM238.519 31.05C241.719 31.05 244.569 31.7 247.069 33C249.619 34.25 251.619 36.2 253.069 38.85C254.519 41.45 255.244 44.8 255.244 48.9V72H243.544V50.7C243.544 47.45 242.819 45.05 241.369 43.5C239.969 41.95 237.969 41.175 235.369 41.175C233.519 41.175 231.844 41.575 230.344 42.375C228.894 43.125 227.744 44.3 226.894 45.9C226.094 47.5 225.694 49.55 225.694 52.05V72H213.994V31.65H225.169V42.825L223.069 39.45C224.519 36.75 226.594 34.675 229.294 33.225C231.994 31.775 235.069 31.05 238.519 31.05Z" fill="white"/>
<circle cx="129.5" cy="46.5" r="4.5" fill="white"/>
</svg>
